<?xml version="1.0" standalone="no"?>
<!DOCTYPE svg PUBLIC "-//W3C//DTD SVG 20010904//EN"
 "http://www.w3.org/TR/2001/REC-SVG-20010904/DTD/svg10.dtd">
<svg version="1.0" xmlns="http://www.w3.org/2000/svg"
 width="1500.000000pt" height="1500.000000pt" viewBox="0 0 1500.000000 1500.000000"
 preserveAspectRatio="xMidYMid meet">
<metadata>
Created by potrace 1.14, written by Peter Selinger 2001-2017
</metadata>
<g transform="translate(0.000000,1500.000000) scale(0.100000,-0.100000)"
fill="#000000" stroke="none">
<path d="M7095 14990 c-869 -48 -1732 -248 -2532 -587 -215 -91 -632 -301
-833 -419 -576 -338 -1059 -711 -1530 -1183 -374 -374 -655 -715 -933 -1130
-434 -650 -759 -1347 -972 -2086 -144 -502 -234 -999 -276 -1535 -17 -212 -17
-893 -1 -1100 86 -1073 368 -2050 855 -2965 367 -691 812 -1284 1378 -1840
437 -429 877 -770 1389 -1077 1008 -605 2092 -951 3285 -1050 209 -17 946 -17
1150 0 937 80 1774 299 2590 679 2325 1081 3955 3307 4274 5833 70 556 80
1184 25 1720 -221 2191 -1377 4150 -3194 5417 -511 356 -1120 670 -1722 889
-622 226 -1278 366 -1988 424 -173 15 -772 20 -965 10z m910 -371 c1493 -103
2922 -680 4076 -1645 1305 -1093 2182 -2621 2459 -4287 71 -428 94 -722 94
-1187 0 -472 -25 -780 -99 -1215 -190 -1110 -637 -2151 -1314 -3055 -1414
-1891 -3656 -2960 -5998 -2862 -384 16 -620 41 -973 103 -1763 307 -3363 1291
-4452 2735 -1159 1538 -1644 3469 -1352 5384 289 1894 1344 3603 2912 4721
1148 819 2490 1273 3912 1323 143 5 576 -4 735 -15z"/>
<path d="M7365 11500 c-527 -44 -1029 -167 -1573 -386 -654 -263 -1322 -440
-1947 -514 -345 -41 -369 -43 -565 -37 -361 10 -677 85 -1046 247 -199 87
-415 213 -616 360 -20 14 -20 13 -13 -20 4 -19 19 -64 34 -100 107 -258 422
-514 839 -681 108 -44 560 -193 657 -217 382 -96 856 -108 1269 -32 166 30
314 71 641 174 384 121 606 202 777 282 331 156 729 269 1158 330 179 26 790
31 997 9 441 -47 882 -166 1243 -335 169 -80 381 -158 715 -265 641 -205 822
-240 1265 -240 416 1 578 28 1020 174 306 102 397 138 570 227 288 149 503
348 600 557 27 57 53 147 44 147 -2 0 -39 -26 -82 -58 -257 -190 -664 -383
-994 -472 -342 -91 -691 -113 -1043 -65 -66 8 -187 25 -270 36 -578 78 -1218
259 -1870 527 -559 230 -1373 389 -1810 352z"/>
<path d="M7100 10429 c-479 -45 -1097 -252 -1485 -499 -209 -133 -590 -302
-1170 -520 -464 -174 -653 -224 -974 -261 -154 -17 -530 -6 -706 20 -150 23
-371 75 -525 123 -262 82 -556 285 -720 496 -30 39 -58 71 -62 71 -21 2 76
-227 142 -334 152 -247 358 -426 622 -538 387 -166 817 -238 1233 -208 659 48
1081 6 1508 -150 230 -84 524 -250 648 -366 252 -236 298 -585 124 -934 -78
-153 -234 -354 -343 -439 -71 -55 -112 -120 -112 -177 0 -87 49 -137 196 -200
233 -101 449 -320 604 -615 121 -230 288 -718 306 -893 5 -50 13 -71 37 -101
40 -48 87 -68 122 -52 70 32 84 142 40 315 -69 274 -101 517 -121 923 -22 445
-15 762 25 1165 39 386 67 635 82 721 l11 66 47 -6 c312 -41 309 -40 826 -41
511 0 562 2 837 41 l46 6 11 -53 c21 -108 83 -696 111 -1043 23 -293 0 -1085
-40 -1346 -25 -169 -65 -372 -92 -469 -28 -104 -23 -209 12 -246 39 -42 55
-47 92 -32 44 18 98 81 98 113 0 87 99 428 195 674 86 219 201 426 314 560
127 152 291 276 429 324 23 8 62 29 86 45 127 88 113 211 -38 331 -162 128
-346 409 -406 620 -30 104 -37 271 -16 369 28 131 107 271 213 373 111 108
413 280 634 362 421 155 794 197 1414 161 318 -19 460 -16 644 10 366 54 734
184 944 335 211 151 393 393 481 638 33 93 33 106 -2 62 -199 -253 -473 -449
-752 -538 -313 -99 -573 -142 -901 -149 -476 -10 -726 45 -1444 322 -534 206
-804 331 -1070 495 -98 61 -327 171 -475 230 -326 128 -663 211 -975 240 -130
12 -570 11 -705 -1z m80 -263 c-207 -76 -379 -236 -475 -439 -55 -115 -76
-213 -76 -352 0 -147 22 -242 85 -370 101 -205 274 -353 496 -427 89 -30 104
-32 245 -32 127 -1 162 2 228 22 237 68 426 227 533 448 209 430 5 955 -441
1136 l-70 29 55 -7 c485 -54 1255 -397 2033 -907 l159 -104 -109 -65 c-471
-286 -1028 -543 -1456 -672 -429 -130 -819 -184 -1138 -158 -555 46 -1251 272
-1944 631 -170 88 -431 235 -449 252 -12 11 -8 14 167 124 563 352 1194 657
1647 795 168 51 427 104 520 108 21 0 19 -2 -10 -12z m405 -170 c266 -71 415
-350 328 -616 -40 -123 -156 -243 -280 -290 -73 -28 -201 -37 -274 -20 -120
28 -233 108 -299 210 -91 142 -94 354 -7 502 31 53 116 135 177 171 92 53 247
72 355 43z"/>
<path d="M7374 9576 c-51 -23 -103 -84 -120 -143 -21 -74 -7 -136 47 -197 128
-145 359 -71 376 121 12 131 -83 233 -217 232 -30 0 -69 -6 -86 -13z"/>
<path d="M3615 7495 c-253 -47 -465 -205 -579 -432 -70 -139 -106 -367 -87
-543 50 -458 335 -857 753 -1055 283 -134 605 -192 1007 -182 233 6 355 22
564 77 188 48 498 159 618 221 43 22 69 63 69 110 0 33 -134 295 -173 337 -31
33 -78 28 -192 -22 -247 -108 -507 -181 -735 -207 -140 -15 -406 -16 -505 0
-362 56 -693 226 -852 436 -155 204 -201 516 -100 687 123 211 438 256 676 97
115 -77 175 -170 194 -303 19 -132 -32 -296 -119 -382 -78 -79 -225 -136 -386
-150 l-83 -7 52 -24 c28 -13 87 -29 131 -35 67 -10 92 -9 168 6 121 23 242 82
311 152 103 103 163 278 163 471 -1 181 -41 327 -126 454 -148 224 -476 349
-769 294z"/>
<path d="M11015 7494 c-84 -14 -199 -50 -270 -85 -143 -70 -240 -166 -306
-304 -63 -131 -74 -187 -73 -370 0 -146 2 -167 27 -241 29 -88 85 -181 138
-231 51 -47 176 -110 264 -133 105 -27 222 -26 311 1 38 11 73 24 77 28 4 4
-36 13 -89 20 -193 23 -342 96 -415 201 -101 147 -105 386 -9 517 42 57 151
137 230 169 252 101 537 8 621 -204 20 -49 23 -75 23 -182 1 -142 -19 -223
-81 -341 -149 -287 -557 -501 -1029 -541 -207 -18 -505 11 -739 71 -100 25
-380 120 -459 155 -59 26 -101 32 -123 18 -6 -4 -50 -74 -97 -157 -93 -162
-102 -193 -64 -240 36 -47 305 -165 553 -244 255 -82 457 -111 764 -111 586 0
1035 157 1329 465 261 273 391 622 361 968 -31 368 -251 641 -596 743 -87 25
-271 40 -348 28z"/>
<path d="M7364 7298 c-258 -371 -525 -674 -721 -820 -54 -40 -95 -78 -98 -91
-6 -24 48 -453 58 -463 10 -10 1106 -17 1398 -9 l265 7 33 222 c26 173 31 227
22 243 -6 12 -43 43 -83 69 -97 64 -356 324 -490 492 -58 73 -154 200 -213
283 -58 82 -108 149 -110 149 -2 0 -29 -37 -61 -82z m374 -663 c173 -214 297
-361 366 -432 l50 -53 -245 0 c-135 0 -455 3 -712 7 l-466 6 56 66 c207 247
479 598 578 748 l47 72 91 -117 c49 -64 155 -198 235 -297z"/>
<path d="M5550 4938 c-262 -20 -621 -161 -825 -325 -16 -14 -67 -61 -113 -106
-306 -301 -419 -756 -311 -1256 115 -530 442 -872 953 -997 299 -72 625 -72
916 1 330 83 601 231 860 471 47 44 240 214 430 379 190 165 406 353 480 419
355 312 635 467 1039 573 231 61 386 49 576 -42 167 -80 282 -200 375 -390 92
-187 138 -400 120 -556 -13 -112 -58 -251 -107 -333 -46 -77 -150 -186 -226
-238 -80 -54 -205 -112 -312 -144 -78 -24 -107 -28 -225 -28 -151 0 -255 17
-410 66 -303 97 -624 298 -896 560 -68 66 -124 117 -124 114 0 -13 71 -147
126 -238 134 -222 349 -459 529 -587 305 -215 680 -304 1012 -240 221 42 454
135 622 246 108 72 264 222 331 319 154 222 230 492 217 769 -14 306 -98 574
-247 789 -209 303 -566 489 -1027 535 -88 9 -116 8 -211 -9 -383 -69 -810
-256 -1133 -497 -126 -94 -668 -573 -1044 -922 -230 -214 -435 -318 -760 -388
-124 -26 -143 -27 -390 -27 -283 0 -360 11 -488 68 -224 99 -383 312 -459 613
-33 128 -32 345 0 457 64 223 210 394 427 501 133 65 248 96 380 102 440 20
959 -278 1413 -812 49 -59 47 -48 -23 102 -73 155 -151 284 -255 421 -338 448
-760 666 -1220 630z"/>
</g>
</svg>
